<?xml version="1.0" standalone="no"?>
<?xml-stylesheet href="board.css" type="text/css"?>
<!DOCTYPE svg PUBLIC "-//W3C//DTD SVG 1.1//EN"
"http://www.w3.org/Graphics/SVG/1.1/DTD/svg11.dtd">
<svg width="400px" height="400px" version="1.1"
    xmlns="http://www.w3.org/2000/svg">
    <defs>
    </defs>
    <rect id="board-container" width="400" height="400" rx="6" ry="6">
    </rect>
    <g transform="translate(15, 15) scale(0.9575 0.9575)">
        <g class="row">
            <g class="cell">
                <rect width="85" height="85" rx="3" ry="3"/>
                <text x="25" y="50" font-size="26"></text>
            </g>
            <g class="cell" transform="translate(100, 0)">
                <rect width="85" height="85" rx="3" ry="3"></rect>
                <text x="25" y="50" font-size="26"></text>
            </g>
            <g class="cell" transform="translate(200, 0)">
                <rect width="85" height="85" rx="3" ry="3"></rect>
                <text x="25" y="50" font-size="26"></text>
            </g>
            <g class="cell" transform="translate(300, 0)">
                <rect width="85" height="85" rx="3" ry="3"></rect>
                <text x="25" y="50" font-size="26"></text>
            </g>
        </g>
        <g class="row" transform="translate(0, 100)">
            <g class="cell">
                <rect width="85" height="85" rx="3" ry="3"></rect>
                <text x="25" y="50" font-size="26"></text>
            </g>
            <g class="cell" transform="translate(100, 0)">
                <rect width="85" height="85" rx="3" ry="3"></rect>
                <text x="25" y="50" font-size="26"></text>
            </g>
            <g class="cell" transform="translate(200, 0)">
                <rect width="85" height="85" rx="3" ry="3"></rect>
                <text x="25" y="50" font-size="26"></text>
            </g>
            <g class="cell" transform="translate(300, 0)">
                <rect width="85" height="85" rx="3" ry="3"></rect>
                <text x="25" y="50" font-size="26"></text>
            </g>
        </g>
        <g class="row" transform="translate(0, 200)">
            <g class="cell">
                <rect width="85" height="85" rx="3" ry="3"></rect>
                <text x="25" y="50" font-size="26"></text>
            </g>
            <g class="cell" transform="translate(100, 0)">
                <rect width="85" height="85" rx="3" ry="3"></rect>
                <text x="25" y="50" font-size="26"></text>
            </g>
            <g class="cell" transform="translate(200, 0)">
                <rect width="85" height="85" rx="3" ry="3"/>
                <text x="25" y="50" font-size="26"></text>
            </g>
            <g class="cell" transform="translate(300, 0)">
                <rect width="85" height="85" rx="3" ry="3"></rect>
                <text x="25" y="50" font-size="26"></text>
            </g>
        </g>
        <g class="row" transform="translate(0, 300)">
            <g class="cell">
                <rect width="85" height="85" rx="3" ry="3"></rect>
                <text x="25" y="50" font-size="26"></text>
            </g>
            <g class="cell" transform="translate(100, 0)">
                <rect width="85" height="85" rx="3" ry="3"></rect>
                <text x="25" y="50" font-size="26"></text>
            </g>
            <g class="cell" transform="translate(200, 0)">
                <rect width="85" height="85" rx="3" ry="3"></rect>
                <text x="25" y="50" font-size="26"></text>
            </g>
            <g class="cell" transform="translate(300, 0)">
                <rect width="85" height="85" rx="3" ry="3"></rect>
                <text x="25" y="50" font-size="26"></text>
            </g>
        </g>
    </g>
</svg>
